Patient4_TMGait_0pt4_03_left_43_EMG.mot
version=1
nRows=20
nColumns=33
inDegrees=no
endheader
time	1LAddLong	2LGlutMax	3LGlutMed	4LIliopsoas	5LSemiMemb	6LBicFemLong	7LRecFem	8LVastMed	9LVastLat	10LGasMed	11LTibAnt	12lTibPost	13LPeroneusLong	14LSol	15LExtDigLong	16LFlexDigLong	17RAddLong	18RGlutMax	19RGlutMed	20RIliopsoas	21RSemiMemb	22RBicFemLong	23RRecFem	24RVastMed	25RVastLat	26RGasMed	27RTibAnt	28RTibPost	29RPeroneusLong	30RSol	31RExtDigLong	32RFlexDigLong
57.45	0.007324	-0.08667	-0.03952	-0.006104	-0.055237	0.022583	-0.021667	-0.002594	-0.097504	-0.02121	-0.023499	0.040588	0.46448	-0.016174	0.084991	0.010986	-0.014496	0.15778	-0.045013	0.00885	-0.020905	0.059509	0.45044	-0.16327	0.039825	-0.018768	-0.086365	0.19898	0.28778	-0.77103	-0.000305	-0.012817
57.451	-0.004425	-0.1886	-0.045624	0.001831	-0.087128	0.003052	-0.094757	0.001678	-0.10101	-0.014954	0.009766	0.043335	-0.071411	0.050507	0.050354	0.010071	-0.023804	0.17014	-0.072021	0.079803	-0.02182	0.033264	0.44662	-0.18692	0.029449	0.013733	-0.066528	0.33539	-0.058136	-0.83862	-0.004272	-0.01709
57.452	0.013123	-0.16617	-0.004578	0.001984	-0.083923	-0.013733	-0.17105	0.034943	-0.044708	0.009155	0.018616	0.036926	-0.37689	0.056152	0.001831	0.005951	-0.009766	0.18188	0.055389	0.13748	0.003052	-0.06546	0.42114	-0.21759	0.035858	0.001221	-0.02243	0.12512	-0.054626	0.19745	-0.000305	-0.016327
57.453	0.002289	-0.13016	-0.090027	-0.00946	-0.054932	-0.054169	-0.19913	0.03067	-0.002899	0.024414	0.024872	0.036926	-0.10452	-0.10391	-0.076599	0.003357	-0.023804	0.16892	0.1918	-0.054932	0.015564	-0.060883	0.42893	-0.20493	0.032959	-0.015106	0.00946	0.043793	0.21057	0.37033	0.006866	-0.022583
57.454	0.014191	-0.12177	-0.058289	0.002747	-0.058594	-0.079498	-0.20523	0.01709	-0.012512	0.018463	0.014191	0.029449	-0.46722	-0.1741	-0.010376	0.007324	-0.021667	0.14023	0.16129	-0.10834	0.004272	-0.024872	0.3952	-0.19577	0.011139	-0.001678	0.005188	0.034943	0.4216	0.23697	0.005798	-0.018463
57.455	0.00473	-0.16388	-0.00412	0.006561	-0.083008	-0.050659	-0.22171	-0.005341	-0.009613	0.013885	-0.010376	0.03067	-0.30624	-0.11902	-0.06012	-0.002136	0.015411	0.13473	-0.078735	-0.17258	-0.001526	-0.009613	0.37766	-0.20676	0.009918	0.007477	-0.001373	0.016937	0.40848	0.30746	0.002136	-0.009766
57.456	0.02655	-0.13077	0.083618	-0.017395	-0.069275	-0.041656	-0.23285	-0.011902	-0.000916	0.036926	0.004425	0.023193	-0.11978	-0.070496	-0.12451	0.006104	0.019531	0.14435	-0.1178	-0.18601	-0.012512	-0.027161	0.35019	-0.18219	-0.005341	0.006714	-0.021057	-0.012054	0.26703	0.35446	0.003052	-0.018005
57.457	0.015411	-0.055084	0.072174	-0.011902	0.03891	0.02594	-0.23926	-0.017548	0.012817	0.016174	0.001984	0.007172	0.073547	-0.015411	-0.074768	0.007782	0.03067	0.14236	0.04425	-0.19501	-0.018311	-0.048218	0.36179	-0.13672	0.007172	-0.012665	-0.025635	-0.032196	0.2388	0.33432	0	-0.019531
57.458	0.00885	0.038147	0.1413	-0.006714	0.073395	0.093842	-0.25406	-0.011139	0.029602	0.004578	-0.016327	0.016479	0.60715	0.056305	0.025635	0.007019	0.042877	0.11231	0.10162	-0.16495	-0.021667	-0.037231	0.36484	-0.11292	0.000763	-0.016022	-0.053253	-0.06546	0.22736	0.22537	0.002289	-0.017548
57.459	-0.005035	0.059814	0.029907	0.029907	0.041046	0.22064	-0.21103	0.005341	0.013275	-0.003204	-0.015717	0.01709	0.49362	0.11444	0.07782	-0.00473	0.06424	0.11963	-0.034027	0.015564	0.002594	-0.046539	0.34515	-0.1474	-0.002136	-0.000458	0.00824	-0.034485	0.18662	0.072021	0.001831	-0.027771
57.46	-0.022278	0.039368	-0.024261	0.018311	-0.012512	0.38376	-0.2272	0.006714	-0.02121	0.072784	0.011597	0.013733	0.00473	0.002899	-0.014954	0.000763	0.054169	0.10788	-0.079193	0.29541	0.007477	-0.031433	0.30914	-0.11047	0.005646	0.002289	0.04425	-0.029449	0.14908	0.012054	0.00351	-0.024719
57.461	-0.006256	0.043182	0.056152	-0.013885	-0.13489	0.39124	-0.31586	0.010681	-0.014343	0.071716	0.00351	0.016632	-0.079803	-0.037231	-0.069122	-0.010223	0.035248	0.12924	-0.28107	0.48584	-0.002136	-0.001068	0.33295	-0.10452	-0.021667	0.002441	0.030975	-0.030365	0.075073	-0.093994	0.004578	-0.025024
57.462	0.002747	0.088501	0.019073	0.010681	-0.2298	0.22888	-0.27588	0.000763	0.010223	0.055237	-0.02594	0.009766	0.28107	0.023956	-0.093384	-0.0177	-0.001984	0.097351	-0.28397	0.49439	0.016632	-0.025177	0.31647	-0.056	-0.02243	0.011902	-0.003052	-0.000458	-0.096893	0.11963	0.00351	-0.018005
57.463	0.026245	0.10986	0.007324	0.006714	-0.071106	0.1532	-0.23224	-0.002594	-0.011902	0.072479	0.041046	0.014648	0.18402	0.011749	-0.099792	0.003815	-0.000763	0.093079	-0.16739	0.23285	0.020752	-0.032196	0.28671	-0.083923	-0.018616	-0.002594	0.05188	0.023651	-0.47211	0.2478	-0.000458	-0.018311
57.464	0.04364	0.15961	0.028229	0.00473	0.084381	0.12009	-0.1973	-0.009003	-0.014496	0.026093	0.025635	0.006256	-0.19974	-0.008087	-0.06546	-0.001678	-0.015411	0.074768	-0.14526	0.061646	0.014343	-0.052032	0.30029	-0.088196	-0.033417	-0.005493	0.041199	0.005646	-0.31876	0.27008	-0.001526	-0.012817
57.465	0.044098	0.17654	-0.13428	0.002899	0.10803	-0.06485	-0.18723	-0.01297	-0.022583	0.006866	0.005646	0.008087	-0.55344	0.10025	0.063934	-0.001221	-0.000916	0.032349	0.01297	0.024719	0.00412	-0.042877	0.29358	-0.070038	-0.021973	0.020599	0.02182	0.004883	-0.12802	-0.026398	0.001373	-0.00946
57.466	0.036163	0.12146	-0.060272	0.004425	0.074615	-0.26642	-0.18585	-0.005035	-0.001221	-0.031891	0.01297	0.021515	-0.17395	0.050354	0.046692	-0.005188	0.015869	0.028381	0.1181	0.013428	0.010529	-0.0383	0.30777	-0.094147	-0.016479	0.000153	0.005035	-0.010223	0.055847	-0.3157	0.002441	-0.014038
57.467	0.036011	0.12405	0.059357	0.003662	0.03479	-0.65826	-0.21149	-0.005646	0.001831	-0.033417	-0.018005	0.005035	0.028076	-0.12528	-0.067749	-0.010071	0.039063	0.074768	0.065613	0.011444	-0.013428	-0.035095	0.30655	-0.12009	-0.020447	-0.017548	-0.016327	-0.056763	0.46509	-0.83786	-0.001831	-0.01297
57.468	0.023651	0.21622	0.045929	-0.004578	-0.002441	-0.44373	-0.19211	0.002747	-0.016785	-0.010071	-0.016327	0.008087	0.006714	-0.26215	-0.09079	-0.016785	0.065918	0.033875	-0.036469	-0.038605	-0.009766	-0.054932	0.28153	-0.10132	-0.029602	-0.007019	-0.011292	0.019989	0.36774	-0.72098	-0.008545	-0.013123
57.469	0.021667	0.24857	-0.037384	0.017548	-0.017242	-0.1944	-0.16937	0.016479	-0.001373	0.011597	0.004425	-0.001373	0.18616	-0.30701	-0.025177	-0.004425	0.074463	0.007477	-0.098877	-0.001984	-0.019684	-0.054169	0.31235	-0.1413	-0.030823	-0.001526	0.011597	-0.1915	0.15259	0.22659	-0.00412	-0.016022
